[IMG]http://img16.imageshack.us/img16/4600/iqga2ucopy.jpg[/IMG]



General
Complete name                    : Zathura(2005) DvDrip{Dual audio}[Eng Hindi]Current_HD
Format                           : AVI
Format/Info                      : Audio Video Interleave
Format profile                   : OpenDML
File size                        : 785 MiB
Duration                         : 1h 37mn
Overall bit rate                 : 1 129 Kbps
Writing application              : AVI-Mux GUI 1.17.8.3, Feb 16 201019:42:50

Video
ID                               : 0
Format                           : MPEG-4 Visual
Format profile                   : Advanced Simple@L5
Format settings, BVOP            : Yes
Format settings, QPel            : No
Format settings, GMC             : No warppoints
Format settings, Matrix          : Default (H.263)
Muxing mode                      : Packed bitstream
Codec ID                         : XVID
Codec ID/Hint                    : XviD
Duration                         : 1h 37mn
Bit rate                         : 895 Kbps
Width                            : 608 pixels
Height                           : 320 pixels
Display aspect ratio             : 1.900
Frame rate                       : 25.000 fps
Color space                      : YUV
Chroma subsampling               : 4:2:0
Bit depth                        : 8 bits
Scan type                        : Progressive
Bits/(Pixel*Frame)               : 0.184
Stream size                      : 622 MiB (79%)
Writing library                  : XviD 1.3.0.dev55

Audio #1
ID                               : 1
Format                           : MPEG Audio
Format version                   : Version 1
Format profile                   : Layer 3
Mode                             : Joint stereo
Mode extension                   : MS Stereo
Codec ID                         : 55
Codec ID/Hint                    : MP3
Duration                         : 1h 37mn
Bit rate mode                    : Variable
Bit rate                         : 103 Kbps
Nominal bit rate                 : 112 Kbps
Channel(s)                       : 2 channels
Sampling rate                    : 48.0 KHz
Stream size                      : 71.5 MiB (9%)
Alignment                        : Aligned on interleaves
Interleave, duration             : 24 ms (0.60 video frame)
Interleave, preload duration     : 82 ms
Writing library                  : LAME3.98r
Encoding settings                : -m j -V 4 -q 2 -lowpass 16 --abr 112

Audio #2
ID                               : 2
Format                           : MPEG Audio
Format version                   : Version 1
Format profile                   : Layer 3
Mode                             : Joint stereo
Mode extension                   : MS Stereo
Codec ID                         : 55
Codec ID/Hint                    : MP3
Duration                         : 1h 33mn
Bit rate mode                    : Constant
Bit rate                         : 128 Kbps
Channel(s)                       : 2 channels
Sampling rate                    : 48.0 KHz
Stream size                      : 85.3 MiB (11%)
Alignment                        : Aligned on interleaves
Interleave, duration             : 772 ms (19.31 video frames)
Interleave, preload duration     : 216 ms
Title                            : CurrentHD
Writing library                  : LAME3.97

[IMG]http://img366.imageshack.us/img366/6269/screenpam.png[/IMG]
[IMG]http://img80.imageshack.us/img80/4786/71822729.jpg[/IMG]
[IMG]http://img838.imageshack.us/img838/6154/88495052.jpg[/IMG]
[IMG]http://img825.imageshack.us/img825/5606/348g[/IMG]
[IMG]http://img814.imageshack.us/img814/6011/46325733.jpg[/IMG]
[IMG]http://img291.imageshack.us/img291/2671/98760646.jpg[/IMG]
[IMG]http://img827.imageshack.us/img827/3361/83022167.jpg[/IMG]
[IMG]http://img43.imageshack.us/img43/2051/95373746.jpg[/IMG]
[IMG]http://img337.imageshack.us/img337/9786/32625233.jpg[/IMG]
[IMG]http://img413.imageshack.us/img413/6707/50278407.jpg[/IMG]







